<mxfile host="app.diagrams.net" agent="Mozilla/5.0 (Windows NT 6.1; Win64; x64; rv:109.0) Gecko/20100101 Firefox/115.0" version="24.7.7">
  <diagram name="Page-1" id="UPWbjL2UGSN8BgPAJ3JU">
    <mxGraphModel dx="1044" dy="728" grid="1" gridSize="10" guides="1" tooltips="1" connect="1" arrows="1" fold="1" page="1" pageScale="1" pageWidth="850" pageHeight="1100" math="1" shadow="0">
      <root>
        <mxCell id="0" />
        <mxCell id="1" parent="0" />
        <mxCell id="sPZY2zaFGh6TAveA4B0m-1" value="" style="pointerEvents=1;verticalLabelPosition=bottom;shadow=0;dashed=0;align=center;html=1;verticalAlign=top;shape=mxgraph.electrical.resistors.resistor_1;direction=south;strokeWidth=3;" vertex="1" parent="1">
          <mxGeometry x="390" y="270" width="20" height="100" as="geometry" />
        </mxCell>
        <mxCell id="sPZY2zaFGh6TAveA4B0m-2" value="" style="pointerEvents=1;verticalLabelPosition=bottom;shadow=0;dashed=0;align=center;html=1;verticalAlign=top;shape=mxgraph.electrical.resistors.resistor_1;direction=south;strokeWidth=3;" vertex="1" parent="1">
          <mxGeometry x="390" y="490" width="20" height="100" as="geometry" />
        </mxCell>
        <mxCell id="sPZY2zaFGh6TAveA4B0m-6" value="" style="pointerEvents=1;verticalLabelPosition=bottom;shadow=0;dashed=0;align=center;html=1;verticalAlign=top;shape=mxgraph.electrical.signal_sources.dc_source_1;strokeWidth=3;" vertex="1" parent="1">
          <mxGeometry x="360" y="420" width="70" height="75" as="geometry" />
        </mxCell>
        <mxCell id="sPZY2zaFGh6TAveA4B0m-7" value="" style="pointerEvents=1;verticalLabelPosition=bottom;shadow=0;dashed=0;align=center;html=1;verticalAlign=top;shape=mxgraph.electrical.signal_sources.dc_source_1;strokeWidth=3;" vertex="1" parent="1">
          <mxGeometry x="360" y="200" width="70" height="75" as="geometry" />
        </mxCell>
        <mxCell id="sPZY2zaFGh6TAveA4B0m-8" value="" style="endArrow=none;html=1;rounded=0;entryX=1;entryY=0.5;entryDx=0;entryDy=0;entryPerimeter=0;strokeWidth=3;" edge="1" parent="1" source="sPZY2zaFGh6TAveA4B0m-13" target="sPZY2zaFGh6TAveA4B0m-1">
          <mxGeometry width="50" height="50" relative="1" as="geometry">
            <mxPoint x="400" y="430" as="sourcePoint" />
            <mxPoint x="450" y="380" as="targetPoint" />
          </mxGeometry>
        </mxCell>
        <mxCell id="sPZY2zaFGh6TAveA4B0m-9" value="" style="endArrow=none;html=1;rounded=0;strokeWidth=3;" edge="1" parent="1">
          <mxGeometry width="50" height="50" relative="1" as="geometry">
            <mxPoint x="399.88" y="630" as="sourcePoint" />
            <mxPoint x="399.88" y="590" as="targetPoint" />
          </mxGeometry>
        </mxCell>
        <mxCell id="sPZY2zaFGh6TAveA4B0m-10" value="" style="endArrow=none;html=1;rounded=0;strokeWidth=3;" edge="1" parent="1">
          <mxGeometry width="50" height="50" relative="1" as="geometry">
            <mxPoint x="270" y="400" as="sourcePoint" />
            <mxPoint x="400" y="400" as="targetPoint" />
          </mxGeometry>
        </mxCell>
        <mxCell id="sPZY2zaFGh6TAveA4B0m-11" value="" style="endArrow=none;html=1;rounded=0;strokeWidth=3;" edge="1" parent="1">
          <mxGeometry width="50" height="50" relative="1" as="geometry">
            <mxPoint x="400" y="210" as="sourcePoint" />
            <mxPoint x="400" y="160" as="targetPoint" />
          </mxGeometry>
        </mxCell>
        <mxCell id="sPZY2zaFGh6TAveA4B0m-12" value="" style="endArrow=none;html=1;rounded=0;strokeWidth=3;" edge="1" parent="1">
          <mxGeometry width="50" height="50" relative="1" as="geometry">
            <mxPoint x="400" y="160" as="sourcePoint" />
            <mxPoint x="480" y="160" as="targetPoint" />
          </mxGeometry>
        </mxCell>
        <mxCell id="sPZY2zaFGh6TAveA4B0m-14" value="" style="endArrow=none;html=1;rounded=0;entryDx=0;entryDy=0;entryPerimeter=0;strokeWidth=3;" edge="1" parent="1" target="sPZY2zaFGh6TAveA4B0m-13">
          <mxGeometry width="50" height="50" relative="1" as="geometry">
            <mxPoint x="400" y="430" as="sourcePoint" />
            <mxPoint x="400" y="370" as="targetPoint" />
          </mxGeometry>
        </mxCell>
        <mxCell id="sPZY2zaFGh6TAveA4B0m-13" value="" style="shape=waypoint;sketch=0;fillStyle=solid;size=6;pointerEvents=1;points=[];fillColor=none;resizable=0;rotatable=0;perimeter=centerPerimeter;snapToPoint=1;strokeWidth=4;" vertex="1" parent="1">
          <mxGeometry x="390" y="390" width="20" height="20" as="geometry" />
        </mxCell>
        <mxCell id="sPZY2zaFGh6TAveA4B0m-15" value="" style="pointerEvents=1;verticalLabelPosition=bottom;shadow=0;dashed=0;align=center;html=1;verticalAlign=top;shape=mxgraph.electrical.signal_sources.signal_ground;strokeWidth=3;" vertex="1" parent="1">
          <mxGeometry x="385" y="630" width="30" height="30" as="geometry" />
        </mxCell>
        <mxCell id="sPZY2zaFGh6TAveA4B0m-17" value="&lt;font style=&quot;font-size: 28px;&quot;&gt;$$v_\text{n1}$$&lt;/font&gt;" style="text;html=1;align=center;verticalAlign=middle;whiteSpace=wrap;rounded=0;" vertex="1" parent="1">
          <mxGeometry x="290" y="222.5" width="60" height="30" as="geometry" />
        </mxCell>
        <mxCell id="sPZY2zaFGh6TAveA4B0m-18" value="&lt;font style=&quot;font-size: 28px;&quot;&gt;$$R_\text{1}$$&lt;/font&gt;" style="text;html=1;align=center;verticalAlign=middle;whiteSpace=wrap;rounded=0;" vertex="1" parent="1">
          <mxGeometry x="290" y="305" width="60" height="30" as="geometry" />
        </mxCell>
        <mxCell id="sPZY2zaFGh6TAveA4B0m-19" value="&lt;font style=&quot;font-size: 28px;&quot;&gt;$$v_\text{n2}$$&lt;/font&gt;" style="text;html=1;align=center;verticalAlign=middle;whiteSpace=wrap;rounded=0;" vertex="1" parent="1">
          <mxGeometry x="290" y="450" width="60" height="30" as="geometry" />
        </mxCell>
        <mxCell id="sPZY2zaFGh6TAveA4B0m-20" value="&lt;font style=&quot;font-size: 28px;&quot;&gt;$$R_\text{2}$$&lt;/font&gt;" style="text;html=1;align=center;verticalAlign=middle;whiteSpace=wrap;rounded=0;" vertex="1" parent="1">
          <mxGeometry x="290" y="531.5" width="60" height="30" as="geometry" />
        </mxCell>
        <mxCell id="sPZY2zaFGh6TAveA4B0m-21" value="&lt;font style=&quot;font-size: 28px;&quot;&gt;$$V_\text{ref}$$&lt;/font&gt;" style="text;html=1;align=center;verticalAlign=middle;whiteSpace=wrap;rounded=0;" vertex="1" parent="1">
          <mxGeometry x="200" y="370" width="60" height="30" as="geometry" />
        </mxCell>
        <mxCell id="sPZY2zaFGh6TAveA4B0m-22" value="&lt;font style=&quot;font-size: 28px;&quot;&gt;$$V_\text{o}$$&lt;/font&gt;" style="text;html=1;align=center;verticalAlign=middle;whiteSpace=wrap;rounded=0;" vertex="1" parent="1">
          <mxGeometry x="470" y="120" width="60" height="30" as="geometry" />
        </mxCell>
        <mxCell id="sPZY2zaFGh6TAveA4B0m-23" value="" style="endArrow=classic;html=1;rounded=0;strokeWidth=2;" edge="1" parent="1">
          <mxGeometry width="50" height="50" relative="1" as="geometry">
            <mxPoint x="480" y="289" as="sourcePoint" />
            <mxPoint x="480" y="349" as="targetPoint" />
          </mxGeometry>
        </mxCell>
        <mxCell id="sPZY2zaFGh6TAveA4B0m-24" value="" style="endArrow=classic;html=1;rounded=0;strokeWidth=2;" edge="1" parent="1">
          <mxGeometry width="50" height="50" relative="1" as="geometry">
            <mxPoint x="480" y="489" as="sourcePoint" />
            <mxPoint x="480" y="549" as="targetPoint" />
          </mxGeometry>
        </mxCell>
        <mxCell id="sPZY2zaFGh6TAveA4B0m-25" value="&lt;font style=&quot;font-size: 28px;&quot;&gt;$$I_\text{t}$$&lt;/font&gt;" style="text;html=1;align=center;verticalAlign=middle;whiteSpace=wrap;rounded=0;" vertex="1" parent="1">
          <mxGeometry x="490" y="305" width="60" height="30" as="geometry" />
        </mxCell>
        <mxCell id="sPZY2zaFGh6TAveA4B0m-26" value="&lt;font style=&quot;font-size: 28px;&quot;&gt;$$I_\text{t}$$&lt;/font&gt;" style="text;html=1;align=center;verticalAlign=middle;whiteSpace=wrap;rounded=0;" vertex="1" parent="1">
          <mxGeometry x="490" y="501.5" width="60" height="30" as="geometry" />
        </mxCell>
      </root>
    </mxGraphModel>
  </diagram>
</mxfile>
